<svg xmlns="http://www.w3.org/2000/svg" width="1200" height="800" viewBox="0 0 1200 800">
  <rect width="1200" height="800" rx="36" fill="#1d0f2f"/>
  <rect x="70" y="90" width="1060" height="620" rx="28" fill="#2b1a43"/>
  <rect x="110" y="130" width="260" height="48" rx="24" fill="#ff4fa3"/>
  <rect x="400" y="142" width="160" height="24" rx="12" fill="#f9d272" opacity="0.8"/>
  <rect x="590" y="142" width="120" height="24" rx="12" fill="#f9d272" opacity="0.55"/>
  <rect x="110" y="230" width="420" height="240" rx="24" fill="#3a2558"/>
  <rect x="560" y="230" width="500" height="140" rx="24" fill="#442b62"/>
  <rect x="560" y="400" width="500" height="220" rx="24" fill="#34204e"/>
  <rect x="140" y="280" width="220" height="16" rx="8" fill="#9fe7ff" opacity="0.8"/>
  <rect x="140" y="314" width="180" height="12" rx="6" fill="#9fe7ff" opacity="0.45"/>
  <rect x="590" y="280" width="240" height="16" rx="8" fill="#9fe7ff" opacity="0.8"/>
  <rect x="590" y="316" width="320" height="12" rx="6" fill="#9fe7ff" opacity="0.45"/>
  <rect x="590" y="460" width="260" height="16" rx="8" fill="#9fe7ff" opacity="0.8"/>
  <rect x="590" y="494" width="300" height="12" rx="6" fill="#9fe7ff" opacity="0.45"/>
</svg>